<?xml version="1.0" encoding="utf-8"?>
<!-- Generator: Adobe Illustrator 16.2.1, SVG Export Plug-In . SVG Version: 6.00 Build 0)  -->
<!DOCTYPE svg PUBLIC "-//W3C//DTD SVG 1.1//EN" "http://www.w3.org/Graphics/SVG/1.1/DTD/svg11.dtd">
<svg version="1.1" id="Layer_1" xmlns="http://www.w3.org/2000/svg" xmlns:xlink="http://www.w3.org/1999/xlink" x="0px" y="0px"
	 width="651.097px" height="603.4px" viewBox="0 0 651.097 603.4" enable-background="new 0 0 651.097 603.4" xml:space="preserve">
<path opacity="0.4" fill="#3A3B3B" d="M651.097,605.611c0,0-68.686,44.172-200.446-3.283
	c-104.618-37.676-306.61-202.6-299.458-195.166l129.973,0.156c70.337,59.209,170.037,122.934,254.453,143.309
	c27.654,6.674,73.43,3.123,115.479-10.305C651.097,533.976,651.097,605.611,651.097,605.611z M94.683,385.72
	C70.495,385.212,0,383.207,0,435.83c0-91.955,0.168-16.209,0.168-69.605c0-6.936-4.553-44.608,88.729-44.608c0,0,67.054,0,149.77,0
	c119.043,0,175.998-26.691,175.746-123.652c-0.255-97.951-57.365-134.502-175.485-134.502c-53.681,0-114.095-0.67-128.478,0
	C83.536,64.716,0.103,73.01,0.103,128.419c0-91.938,0.191-30.797,0.191-83.842C0.294,14.136,40.528,0,79.867,0h181.835
	c109.346,0,225.042,39.011,225.042,196.808c0,205.17-226.95,188.913-226.95,188.913H94.683z"/>
</svg>
